<svg width="13" height="14" viewBox="0 0 13 14" fill="none" xmlns="http://www.w3.org/2000/svg">
<g id="Icon_Star">
<path id="Star 1" d="M6.02229 2.04591C6.16748 1.57607 6.83252 1.57607 6.97771 2.04591L7.92555 5.11318C7.99029 5.32268 8.18398 5.46556 8.40326 5.46556H11.5219C12.0001 5.46556 12.2054 6.07255 11.8254 6.36289L9.25993 8.32272C9.09342 8.44992 9.02388 8.66746 9.08575 8.86767L10.0554 12.0054C10.1991 12.4705 9.66097 12.8459 9.27412 12.5504L6.80353 10.663C6.62433 10.5261 6.37567 10.5261 6.19647 10.663L3.72588 12.5504C3.33903 12.8459 2.80091 12.4705 2.94463 12.0054L3.91425 8.86767C3.97611 8.66746 3.90658 8.44992 3.74007 8.32272L1.17462 6.36289C0.794561 6.07255 0.999881 5.46556 1.47815 5.46556H4.59674C4.81602 5.46556 5.00971 5.32268 5.07445 5.11318L6.02229 2.04591Z" fill="#FFBB56"/>
</g>
</svg>
